<svg width="37" height="42" viewBox="0 0 37 42" fill="none" xmlns="http://www.w3.org/2000/svg">
    <path fill-rule="evenodd" clip-rule="evenodd"
        d="M15.0827 0.716187L17.5502 2.19669C20.6799 4.04667 23.0841 6.90968 24.3652 10.312C24.8 9.33285 25.317 8.38306 25.7968 7.42348L27.7179 9.3446C32.0302 13.6569 36.125 20.1194 36.125 26.3958C36.125 34.8127 30.9354 40.1492 22.6321 41.0716L19.91 41.3731L20.5054 38.7C20.9695 36.6085 21.0537 35.2416 20.9558 34.284C20.8383 33.0796 20.2664 32.1337 19.5536 31.1937C18.8721 30.2929 18.1965 29.3901 17.656 28.3933C15.4333 30.1499 14.5716 31.7362 14.2955 33.0424C13.943 34.7148 14.4424 36.4244 15.3549 38.2496L16.9647 41.4691L13.3888 41.0716C8.34411 40.5115 3.37386 37.1412 1.41553 32.2238C-0.63093 27.0793 0.816278 20.8537 7.42761 15.1236C11.8143 11.3225 14.1369 6.39339 15.0827 0.716187ZM17.6912 7.17869C16.199 11.3695 13.3339 15.1883 9.99107 18.0846C4.29036 23.0255 3.77924 27.5708 5.05607 30.7746C6.00586 33.1638 8.05624 35.128 10.4865 36.2423C10.2026 34.9226 10.1946 33.5585 10.463 32.2356C11.1014 29.208 13.2791 26.3704 17.4621 23.756L19.5712 22.438L20.3585 24.7978C21.0478 26.8658 22.4774 28.3287 23.5956 30.1441C24.8254 32.1416 25.0604 34.4328 24.8098 36.7201C29.9406 35.4374 32.2084 31.5462 32.2084 26.3958C32.2084 22.0444 29.5842 17.7752 26.9796 14.4382C25.9064 16.8431 23.6446 17.6891 21.4375 18.7936V15.625C21.4375 12.944 20.3467 9.67556 17.6912 7.18064V7.17869Z"
        fill="white" />
</svg>