<svg width="19" height="28" viewBox="0 0 19 28" fill="none" xmlns="http://www.w3.org/2000/svg">
    <path
        d="M5.23873 20.7417C6.02645 21.7738 6.74342 22.8608 7.38447 23.9951C7.93176 25.0618 8.15991 25.7852 8.55987 27.0705C8.80517 27.7807 9.02686 27.9926 9.50349 27.9926C10.0229 27.9926 10.2585 27.632 10.4406 27.0744C10.8186 25.8606 11.1153 24.9342 11.5833 24.0589C12.5017 22.3689 13.6429 20.8672 14.7642 19.424C15.0677 19.0155 17.0304 16.6358 17.914 14.7581C17.914 14.7581 18.9999 12.6955 18.9999 9.81488C18.9999 7.12032 17.929 5.25149 17.929 5.25149L14.8455 6.10034L12.973 11.1702L12.5097 11.8693L12.4171 11.9959L12.2939 12.1544L12.0776 12.4077L11.7686 12.7253L10.1011 14.1218L5.93223 16.5961L5.23873 20.7417Z"
        fill="#34A853" />
    <path
        d="M0.936047 14.4114C1.95351 16.8004 3.91556 18.9005 5.24303 20.7434L12.2939 12.1577C12.2939 12.1577 11.3005 13.4932 9.49866 13.4932C7.49157 13.4932 5.87011 11.8456 5.87011 9.76811C5.87011 8.34347 6.70388 7.36476 6.70388 7.36476L1.91759 8.68313L0.936047 14.4114Z"
        fill="#FBBC04" />
    <path
        d="M12.3726 0.441515C14.7144 1.21766 16.7187 2.84707 17.9311 5.24981L12.296 12.1528C12.296 12.1528 13.1298 11.1564 13.1298 9.74057C13.1298 7.6147 11.3884 6.02656 9.5072 6.02656C7.72825 6.02656 6.70655 7.3598 6.70655 7.3598V3.01103L12.3726 0.441515Z"
        fill="#4285F4" />
    <path
        d="M2.22768 3.49161C3.62633 1.7714 6.08742 0 9.48041 0C11.1266 0 12.3668 0.444262 12.3668 0.444262L6.70121 7.36362H2.68709L2.22768 3.49161Z"
        fill="#1A73E8" />
    <path
        d="M0.936047 14.4114C0.936047 14.4114 0 12.5271 0 9.79725C0 7.21721 0.97568 4.96195 2.22768 3.49161L6.7044 7.36423L0.936047 14.4114Z"
        fill="#EA4335" />
</svg>