<svg width="16" height="16" viewBox="0 0 16 16" fill="none" xmlns="http://www.w3.org/2000/svg">
<path d="M11.2551 0.987805L11.2568 0.987882C12.0895 1.02703 12.5666 1.16728 12.8996 1.29812M11.2551 0.987805L12.718 1.764M11.2551 0.987805C10.4221 0.951588 10.1518 0.940531 8.15142 0.940019L8.12139 0.92H7.97C5.8547 0.92 5.5778 0.929777 4.74577 0.959155L4.71303 0.960311L4.71303 0.960248L4.70506 0.960656C3.87627 1.00316 3.40278 1.14317 3.07184 1.27345C2.61846 1.44087 2.29909 1.66381 1.97711 1.98578C1.65357 2.30932 1.4314 2.62808 1.26335 3.08211C1.13349 3.41393 0.994492 3.89572 0.951345 4.7233L0.951274 4.7233L0.950978 4.7317L0.949451 4.77493C0.920346 5.59898 0.91 5.89188 0.91 7.99C0.91 10.0903 0.920373 10.3806 0.949579 11.1978L0.950985 11.2372L0.950918 11.2372L0.951345 11.2454C0.994459 12.0723 1.13327 12.5547 1.26309 12.8866C1.41552 13.3016 1.65991 13.6767 1.97793 13.9838C2.28537 14.2991 2.65895 14.5423 3.07173 14.6958C3.40329 14.8256 3.88577 14.9655 4.71466 15.0087L4.71752 15.0088C5.57745 15.0487 5.83626 15.0587 7.98 15.0587C10.1225 15.0587 10.3812 15.05 11.2417 15.0115L11.242 15.0115C12.0728 14.9739 12.5561 14.8329 12.8871 14.704M11.2551 0.987805L11.2193 14.512M12.8996 1.29812C12.9 1.29832 12.9005 1.29851 12.901 1.2987L12.718 1.764M12.8996 1.29812C12.8991 1.29794 12.8986 1.29775 12.8981 1.29756L12.718 1.764M12.8996 1.29812C13.3385 1.4678 13.662 1.67923 13.9916 2.00652L13.9933 2.0082C14.3219 2.33761 14.5335 2.6626 14.7031 3.1019M12.718 1.764C13.0927 1.90867 13.358 2.082 13.6393 2.36133C13.9187 2.64133 14.092 2.90733 14.2367 3.282M14.7031 3.1019C14.703 3.10156 14.7028 3.10122 14.7027 3.10088L14.2367 3.282M14.7031 3.1019L14.2367 3.282M14.7031 3.1019C14.8316 3.43278 14.9737 3.90946 15.0115 4.74404L15.0115 4.74418C15.05 5.59943 15.0587 5.86157 15.0587 8C15.0587 10.139 15.0487 10.4019 15.0088 11.2566L15.0087 11.2594C14.9654 12.0899 14.8248 12.5655 14.6956 12.8969M14.2367 3.282C14.346 3.56333 14.4767 3.98667 14.512 4.76667C14.55 5.61067 14.5587 5.864 14.5587 8C14.5587 10.136 14.5487 10.39 14.5093 11.2333C14.4687 12.0133 14.3387 12.4367 14.2287 12.718M14.6956 12.8969C14.696 12.8957 14.6964 12.8946 14.6969 12.8935L14.2287 12.718M14.6956 12.8969C14.6952 12.8979 14.6948 12.899 14.6943 12.9001L14.2287 12.718M14.6956 12.8969C14.5404 13.3094 14.2974 13.6832 13.9833 13.9925M14.2287 12.718C14.0985 13.0652 13.894 13.3796 13.6293 13.6393M13.6293 13.6393L13.9871 13.9886C13.9859 13.9899 13.9846 13.9912 13.9833 13.9925M13.6293 13.6393C13.3708 13.9042 13.0565 14.1082 12.7093 14.2367M13.6293 13.6393L13.9795 13.9962C13.9808 13.995 13.9821 13.9937 13.9833 13.9925M13.9833 13.9925C13.6747 14.3074 13.3004 14.5504 12.8871 14.704M12.7093 14.2367L12.8912 14.7024C12.8898 14.703 12.8885 14.7035 12.8871 14.704M12.7093 14.2367C12.4293 14.346 11.9993 14.4767 11.2193 14.512M12.7093 14.2367L12.8828 14.7056C12.8842 14.7051 12.8857 14.7046 12.8871 14.704M11.2193 14.512C10.37 14.55 10.12 14.5587 7.98 14.5587C5.83933 14.5587 5.58933 14.5487 4.74067 14.5093L11.2193 14.512ZM15.952 4.702L15.4525 4.72424C15.4525 4.72441 15.4525 4.72458 15.4525 4.72474C15.4525 4.72498 15.4525 4.72523 15.4526 4.72547L15.952 4.702ZM0.547505 11.2758C0.547496 11.2755 0.547486 11.2753 0.547477 11.2751C0.547468 11.2749 0.547458 11.2747 0.547449 11.2745L0.048 11.298L0.547505 11.2758ZM11.2758 15.4525C11.2756 15.4525 11.2754 15.4525 11.2752 15.4525C11.275 15.4525 11.2748 15.4525 11.2745 15.4526L11.298 15.952L11.2758 15.4525ZM15.9519 11.298L15.952 11.298L15.9519 11.298ZM6.61928 4.66664C7.05702 4.48532 7.52619 4.392 8 4.392C8.9569 4.392 9.87461 4.77213 10.5512 5.44876C11.2279 6.12539 11.608 7.0431 11.608 8C11.608 8.9569 11.2279 9.87461 10.5512 10.5512C9.87461 11.2279 8.9569 11.608 8 11.608C7.52619 11.608 7.05702 11.5147 6.61928 11.3334C6.18154 11.152 5.78379 10.8863 5.44876 10.5512C5.11372 10.2162 4.84796 9.81846 4.66664 9.38072C4.48532 8.94298 4.392 8.47381 4.392 8C4.392 7.52619 4.48532 7.05702 4.66664 6.61928C4.84796 6.18154 5.11372 5.78379 5.44876 5.44876C5.78379 5.11373 6.18154 4.84796 6.61928 4.66664ZM4.83333 8C4.83333 9.74948 6.25052 11.1667 8 11.1667C9.74948 11.1667 11.1667 9.74948 11.1667 8C11.1667 6.25052 9.74948 4.83333 8 4.83333C6.25052 4.83333 4.83333 6.25052 4.83333 8ZM12.5959 3.40473C12.68 3.4888 12.7282 3.60206 12.7306 3.72069C12.7239 3.83636 12.6739 3.94542 12.5903 4.02597C12.5044 4.10867 12.3899 4.15488 12.2707 4.15488C12.1515 4.15488 12.0369 4.10867 11.9511 4.02597C11.8674 3.94542 11.8174 3.83636 11.8108 3.72069C11.8132 3.60206 11.8613 3.4888 11.9454 3.40473C12.0317 3.31846 12.1487 3.27 12.2707 3.27C12.3927 3.27 12.5097 3.31846 12.5959 3.40473Z" fill="#169FED" stroke="white"/>
</svg>
