<svg width="16" height="16" viewBox="0 0 16 16" fill="none" xmlns="http://www.w3.org/2000/svg">
    <path fill-rule="evenodd" clip-rule="evenodd"
        d="M6.28603 5.97901H8.76203V7.21234C9.11869 6.50301 10.0334 5.86567 11.4074 5.86567C14.0414 5.86567 14.6667 7.27767 14.6667 9.86834V14.6663H12V10.4583C12 8.98301 11.6434 8.15101 10.7354 8.15101C9.47603 8.15101 8.95269 9.04767 8.95269 10.4577V14.6663H6.28603V5.97901ZM1.71336 14.553H4.38003V5.86567H1.71336V14.553ZM4.76203 3.03301C4.76212 3.25652 4.7178 3.47783 4.63162 3.68407C4.54544 3.8903 4.41913 4.07735 4.26003 4.23434C3.93763 4.55476 3.50123 4.73411 3.04669 4.73301C2.59295 4.7327 2.15757 4.55381 1.83469 4.23501C1.67617 4.07748 1.55028 3.89022 1.46425 3.68396C1.37823 3.4777 1.33374 3.25649 1.33336 3.03301C1.33336 2.58167 1.51336 2.14967 1.83536 1.83101C2.15795 1.51178 2.59352 1.33281 3.04736 1.33301C3.50203 1.33301 3.93803 1.51234 4.26003 1.83101C4.58136 2.14967 4.76203 2.58167 4.76203 3.03301Z"
        fill="#1F2B51" />
</svg>