<svg width="15" height="15" viewBox="0 0 35 32" fill="none" xmlns="http://www.w3.org/2000/svg">
    <path
        d="M17.5 16C19.2405 16 20.9097 15.3679 22.1404 14.2426C23.3711 13.1174 24.0625 11.5913 24.0625 10C24.0625 8.4087 23.3711 6.88258 22.1404 5.75736C20.9097 4.63214 19.2405 4 17.5 4C15.7595 4 14.0903 4.63214 12.8596 5.75736C11.6289 6.88258 10.9375 8.4087 10.9375 10C10.9375 11.5913 11.6289 13.1174 12.8596 14.2426C14.0903 15.3679 15.7595 16 17.5 16ZM17.5 18C15.1794 18 12.9538 17.1571 11.3128 15.6569C9.67187 14.1566 8.75 12.1217 8.75 10C8.75 7.87827 9.67187 5.84344 11.3128 4.34315C12.9538 2.84285 15.1794 2 17.5 2C19.8206 2 22.0462 2.84285 23.6872 4.34315C25.3281 5.84344 26.25 7.87827 26.25 10C26.25 12.1217 25.3281 14.1566 23.6872 15.6569C22.0462 17.1571 19.8206 18 17.5 18Z"
        fill="#1F2B51" />
    <path
        d="M17.5 16C17.7901 16 18.0683 16.1054 18.2734 16.2929C18.4785 16.4804 18.5938 16.7348 18.5938 17V25C18.5938 25.2652 18.4785 25.5196 18.2734 25.7071C18.0683 25.8946 17.7901 26 17.5 26C17.2099 26 16.9317 25.8946 16.7266 25.7071C16.5215 25.5196 16.4062 25.2652 16.4062 25V17C16.4062 16.7348 16.5215 16.4804 16.7266 16.2929C16.9317 16.1054 17.2099 16 17.5 16Z"
        fill="#1F2B51" />
    <path
        d="M13.125 20.284V22.314C9.22031 22.886 6.5625 24.122 6.5625 25C6.5625 26.178 11.3444 28 17.5 28C23.6556 28 28.4375 26.178 28.4375 25C28.4375 24.12 25.7797 22.886 21.875 22.314V20.284C26.9719 20.97 30.625 22.824 30.625 25C30.625 27.76 24.7494 30 17.5 30C10.2506 30 4.375 27.76 4.375 25C4.375 22.822 8.02813 20.97 13.125 20.284Z"
        fill="#1F2B51" />
</svg>