<svg width="23" height="24" viewBox="0 0 23 24" fill="none" xmlns="http://www.w3.org/2000/svg">
    <circle cx="11.5" cy="12.5" r="22.5" fill="white" />
    <path
        d="M20.4655 4.93311L11.8405 1.93311C11.6196 1.85531 11.3804 1.85531 11.1595 1.93311L2.5345 4.93311C2.3287 5.00423 2.14823 5.13845 2.01665 5.31823C1.88506 5.49802 1.80847 5.71502 1.79689 5.94092C1.79589 5.9606 1.79589 5.98031 1.79689 5.99998V13.5C1.79689 13.7984 1.91047 14.0845 2.11266 14.2955C2.31485 14.5065 2.58907 14.625 2.87501 14.625C3.16095 14.625 3.43517 14.5065 3.63736 14.2955C3.83955 14.0845 3.95314 13.7984 3.95314 13.5V7.56092L6.08333 8.30155C5.42222 9.62201 5.22576 11.1426 5.52814 12.5986C5.83052 14.0546 6.6126 15.3539 7.73825 16.2703C6.2652 17.0283 5.01853 18.1917 4.13282 19.635C4.05306 19.7587 3.99766 19.8977 3.96984 20.0439C3.94202 20.1902 3.94233 20.3407 3.97076 20.4868C3.99918 20.6329 4.05516 20.7717 4.13543 20.895C4.2157 21.0184 4.31867 21.1238 4.43834 21.2053C4.55801 21.2867 4.69201 21.3425 4.83254 21.3695C4.97307 21.3964 5.11732 21.3939 5.25693 21.3622C5.39653 21.3304 5.52869 21.2701 5.64573 21.1845C5.76277 21.099 5.86235 20.9901 5.93868 20.864C7.22075 18.8053 9.25392 17.625 11.5 17.625C13.7461 17.625 15.7793 18.8053 17.0658 20.864C17.1422 20.9901 17.2417 21.099 17.3588 21.1845C17.4758 21.2701 17.608 21.3304 17.7476 21.3622C17.8872 21.3939 18.0314 21.3964 18.172 21.3695C18.3125 21.3425 18.4465 21.2867 18.5662 21.2053C18.6858 21.1238 18.7888 21.0184 18.8691 20.895C18.9494 20.7717 19.0053 20.6329 19.0338 20.4868C19.0622 20.3407 19.0625 20.1902 19.0347 20.0439C19.0069 19.8977 18.9515 19.7587 18.8717 19.635C17.9851 18.19 16.7368 17.0255 15.2618 16.2675C16.3874 15.3511 17.1695 14.0518 17.4719 12.5958C17.7743 11.1398 17.5778 9.6192 16.9167 8.29873L20.4655 7.06405C20.6799 6.9892 20.8663 6.84592 20.9984 6.65447C21.1305 6.46301 21.2016 6.23308 21.2016 5.99717C21.2016 5.76127 21.1305 5.53133 20.9984 5.33988C20.8663 5.14842 20.6799 5.00514 20.4655 4.9303V4.93311ZM11.5 4.18311L16.7154 5.99998L11.5 7.81405L6.28907 5.99998L11.5 4.18311ZM15.4531 11.25C15.4533 11.8907 15.3103 12.5226 15.0357 13.0957C14.7611 13.6688 14.3623 14.1672 13.871 14.5515C13.3796 14.9358 12.8093 15.1953 12.2051 15.3096C11.6009 15.4239 10.9796 15.3897 10.3902 15.2099C9.8009 15.03 9.25982 14.7093 8.8099 14.2733C8.35998 13.8373 8.01358 13.2979 7.79816 12.698C7.58274 12.098 7.50422 11.4539 7.56883 10.8167C7.63345 10.1795 7.83941 9.56683 8.1704 9.02717L11.1595 10.0669C11.3804 10.1443 11.6196 10.1443 11.8405 10.0669L14.8296 9.02717C15.2373 9.69044 15.4538 10.462 15.4531 11.25Z"
        fill="#1F2B51" />
</svg>