<svg width="15" height="16" viewBox="0 0 15 16" fill="none" xmlns="http://www.w3.org/2000/svg">
    <path fill-rule="evenodd" clip-rule="evenodd"
        d="M13.4463 0.100443C13.6307 0.0115061 13.8325 -0.0191676 14.0308 0.011614C14.2291 0.0423957 14.4166 0.133508 14.5737 0.275466C14.7308 0.417425 14.8519 0.605041 14.9242 0.818786C14.9966 1.03253 15.0176 1.26459 14.9852 1.49081L13.2925 13.2542C13.1283 14.3889 12.0417 15.0397 11.1334 14.4745C10.3737 14.0016 9.24525 13.2731 8.23027 12.5129C7.72277 12.1324 6.1682 10.9139 6.35926 10.0468C6.52345 9.30545 9.13555 6.51958 10.6282 4.86328C11.214 4.21256 10.9469 3.83717 10.255 4.43573C8.537 5.92187 5.77863 8.18187 4.86663 8.81805C4.0621 9.37899 3.64267 9.47476 3.14115 9.37899C2.22617 9.20455 1.37761 8.93435 0.685033 8.60514C-0.250845 8.16049 -0.20532 6.68632 0.684286 6.25707L13.4463 0.100443Z"
        fill="#1F2B51" />
</svg>