<svg width="16" height="16" viewBox="0 0 16 16" fill="none" xmlns="http://www.w3.org/2000/svg">
    <g clip-path="url(#clip0_5_375)">
        <path
            d="M15.762 3.29171C15.2053 3.53838 14.6073 3.70504 13.9787 3.78038C14.6273 3.39224 15.1126 2.78135 15.344 2.06171C14.7346 2.4237 14.0676 2.67851 13.372 2.81504C12.9043 2.31562 12.2847 1.98459 11.6096 1.87336C10.9344 1.76212 10.2414 1.8769 9.63816 2.19988C9.03493 2.52285 8.55519 3.03595 8.27344 3.65951C7.99169 4.28307 7.9237 4.98221 8.08001 5.64838C6.84513 5.58637 5.63709 5.26541 4.53429 4.70631C3.43149 4.14722 2.45857 3.36248 1.67867 2.40304C1.41201 2.86304 1.25867 3.39638 1.25867 3.96438C1.25837 4.47571 1.38429 4.9792 1.62526 5.4302C1.86622 5.88119 2.21478 6.26574 2.64001 6.54971C2.14686 6.53402 1.66459 6.40077 1.23334 6.16104V6.20104C1.23329 6.9182 1.48136 7.6133 1.93546 8.16837C2.38956 8.72345 3.02172 9.10433 3.72467 9.24638C3.26719 9.37019 2.78756 9.38842 2.32201 9.29971C2.52034 9.91679 2.90667 10.4564 3.42692 10.843C3.94717 11.2296 4.57528 11.4438 5.22334 11.4557C4.12323 12.3193 2.7646 12.7878 1.36601 12.7857C1.11826 12.7858 0.870723 12.7713 0.624672 12.7424C2.04432 13.6552 3.6969 14.1396 5.38467 14.1377C11.098 14.1377 14.2213 9.40571 14.2213 5.30171C14.2213 5.16838 14.218 5.03371 14.212 4.90038C14.8195 4.46103 15.3439 3.91697 15.7607 3.29371L15.762 3.29171Z"
            fill="#1F2B51" />
    </g>
    <defs>
        <clipPath id="clip0_5_375">
            <rect width="16" height="16" fill="white" />
        </clipPath>
    </defs>
</svg>