<svg width="32" height="30" viewBox="0 0 32 30" fill="none" xmlns="http://www.w3.org/2000/svg">
    <path
        d="M21.88 1.875H17.88C13.88 1.875 9.81 4.6875 9.81 10.8938C9.72637 12.3323 10.0688 13.7645 10.7995 15.0319C11.5301 16.2993 12.6205 17.3525 13.95 18.075L9 26.3719C8.88654 26.5522 8.8267 26.7578 8.8267 26.9672C8.8267 27.1766 8.88654 27.3821 9 27.5625C9.10264 27.7276 9.24812 27.8658 9.42295 27.9641C9.59777 28.0625 9.79627 28.1178 10 28.125H12.49C12.7426 28.1365 12.993 28.0754 13.2075 27.9497C13.422 27.824 13.5903 27.6398 13.69 27.4219L18.28 18.9844H18.62V27.0656C18.6211 27.21 18.6535 27.3528 18.7151 27.4851C18.7767 27.6175 18.8663 27.7368 18.9784 27.8358C19.0906 27.9348 19.223 28.0115 19.3676 28.0612C19.5123 28.1109 19.6662 28.1326 19.82 28.125H22C22.2938 28.1352 22.5801 28.0368 22.7971 27.8508C23.0141 27.6649 23.1445 27.4065 23.16 27.1313V3.01875C23.164 2.87223 23.1371 2.72641 23.081 2.58963C23.0249 2.45284 22.9405 2.32776 22.8328 2.22155C22.7251 2.11533 22.5961 2.03005 22.4532 1.97059C22.3103 1.91113 22.1563 1.87865 22 1.875H21.88ZM18.7 15.2625H18.11C15.81 15.2625 14.45 13.5094 14.45 10.575C14.45 6.91875 16.18 5.61562 17.79 5.61562H18.73L18.7 15.2625Z"
        fill="#D61E3B" />
</svg>